<svg width="66" height="66" viewBox="0 0 66 66" fill="none" xmlns="http://www.w3.org/2000/svg">
<rect x="0.5" y="0.5" width="65" height="65" rx="11.5" fill="#1F1F1F"/>
<rect x="0.5" y="0.5" width="65" height="65" rx="11.5" stroke="#333333"/>
<path d="M29.9834 32.1626C29.9834 32.1626 32.9475 31.9374 32.9475 28.3907C32.9475 24.8469 30.9372 23.1 27.8644 23.1L17.3379 23.0834V42.6676H28.1092C28.1092 42.6676 33.4949 42.838 33.4949 36.7923C33.4949 36.7923 33.8905 32.1626 29.9834 32.1626ZM21.2547 26.021H26.6404C26.6404 26.021 28.4833 26.0514 28.4833 28.4406C28.4833 30.9171 26.6404 30.9171 26.6404 30.9171H21.2547V26.021ZM27.13 39.73H21.2547V33.8547H27.13C27.13 33.8547 30.0676 33.8851 30.0676 36.7923C30.0676 39.6996 27.553 39.73 27.13 39.73Z" fill="#D48E77"/>
<path d="M41.8189 27.9797C34.4621 27.9797 34.4748 35.3238 34.4748 35.3238C34.4748 35.3238 33.9852 42.6679 41.8189 42.6679C41.8189 42.6679 48.6734 42.6679 48.6734 36.7926H44.7565C44.7565 36.7926 44.7565 39.7303 41.8189 39.7303C41.8189 39.7303 38.8812 39.7303 38.8812 35.8134C38.8812 35.8134 46.7149 35.8134 48.6734 35.8134C48.6734 33.855 48.6734 27.9797 41.8189 27.9797ZM38.8812 33.855C38.8812 33.855 38.8166 30.9174 41.8189 30.9174C44.8202 30.9174 44.7565 33.855 44.7565 33.855H38.8812Z" fill="#D48E77"/>
<path d="M45.736 25.0419H37.9023V27.0003H45.736V25.0419Z" fill="#D48E77"/>
</svg>
