<svg width="56" height="56" viewBox="0 0 56 56" fill="none" xmlns="http://www.w3.org/2000/svg">
<rect x="0.5" y="0.5" width="55" height="55" rx="7.5" fill="#1F1F1F"/>
<rect x="0.5" y="0.5" width="55" height="55" rx="7.5" stroke="#333333"/>
<path d="M28.6834 38.9832C29.3668 39.6666 30.4668 39.6666 32.6667 39.6666H35C37.1999 39.6666 38.2998 39.6666 38.9833 38.9832C39.6667 38.2998 39.6667 37.1998 39.6667 34.9999V20.9999C39.6667 18.8 39.6667 17.7001 38.9833 17.0167C38.2998 16.3333 37.1999 16.3333 35 16.3333H32.6667C30.4668 16.3333 29.3668 16.3333 28.6834 17.0167C28.0973 17.6028 28.0139 18.4952 28.002 20.1249L30.3333 20.1249C30.8166 20.1249 31.2083 20.5167 31.2083 20.9999C31.2083 21.4832 30.8166 21.8749 30.3333 21.8749H28V23.6249H31.5C31.9833 23.6249 32.375 24.0167 32.375 24.4999C32.375 24.9832 31.9833 25.3749 31.5 25.3749H28V27.1249H30.3333C30.8166 27.1249 31.2083 27.5167 31.2083 27.9999C31.2083 28.4832 30.8166 28.8749 30.3333 28.8749H28V30.6249L31.5 30.6249C31.9833 30.6249 32.375 31.0167 32.375 31.4999C32.375 31.9832 31.9832 32.3749 31.5 32.3749L28 32.3749V34.1249H30.3333C30.8166 34.1249 31.2083 34.5167 31.2083 34.9999C31.2083 35.4832 30.8166 35.8749 30.3333 35.8749H28.002C28.0139 37.5047 28.0973 38.3971 28.6834 38.9832Z" fill="#CE7D63"/>
<path d="M23.334 31.7257L23.334 22.4164C22.4368 22.7863 21.2534 23.1035 19.8342 23.1035C18.4148 23.1035 17.2312 22.7862 16.334 22.4163L16.334 31.7256C16.334 32.452 16.334 32.8154 16.378 33.1718C16.43 33.5923 16.5277 34.0058 16.6692 34.4052C16.7892 34.7437 16.9516 35.0686 17.2765 35.7184L18.9898 39.1448C19.1497 39.4646 19.4765 39.6666 19.834 39.6666C20.1915 39.6666 20.5183 39.4646 20.6782 39.1448L22.3914 35.7184C22.7163 35.0686 22.8788 34.7437 22.9988 34.4052C23.1403 34.0058 23.2379 33.5923 23.2899 33.1718C23.334 32.8154 23.334 32.4521 23.334 31.7257Z" fill="#CE7D63"/>
<path d="M23.334 19.8333C23.334 17.9003 21.767 16.3333 19.834 16.3333C17.901 16.3333 16.334 17.9003 16.334 19.8333L16.334 20.9498C16.3647 20.9652 16.396 20.9807 16.428 20.9962C17.2224 21.3813 18.3816 21.7684 19.8342 21.7684C21.2868 21.7684 22.446 21.3813 23.2404 20.9962C23.2722 20.9808 23.3034 20.9654 23.334 20.95V19.8333Z" fill="#CE7D63"/>
</svg>
