<svg width="66" height="66" viewBox="0 0 66 66" fill="none" xmlns="http://www.w3.org/2000/svg">
<rect x="0.5" y="0.5" width="65" height="65" rx="11.5" fill="#1F1F1F"/>
<rect x="0.5" y="0.5" width="65" height="65" rx="11.5" stroke="#333333"/>
<path d="M28.277 33C28.277 30.3921 30.3918 28.2774 33.0013 28.2774C35.6108 28.2774 37.7267 30.3921 37.7267 33C37.7267 35.6079 35.6108 37.7226 33.0013 37.7226C30.3918 37.7226 28.277 35.6079 28.277 33ZM25.7225 33C25.7225 37.0177 28.9812 40.2744 33.0013 40.2744C37.0214 40.2744 40.2801 37.0177 40.2801 33C40.2801 28.9823 37.0214 25.7256 33.0013 25.7256C28.9812 25.7256 25.7225 28.9823 25.7225 33ZM38.8672 25.4372C38.8671 25.7734 38.9667 26.1021 39.1535 26.3818C39.3403 26.6614 39.6059 26.8794 39.9166 27.0082C40.2274 27.137 40.5694 27.1708 40.8994 27.1053C41.2294 27.0399 41.5325 26.8781 41.7705 26.6404C42.0085 26.4028 42.1706 26.0999 42.2364 25.7702C42.3022 25.4404 42.2686 25.0986 42.14 24.7879C42.0114 24.4772 41.7935 24.2116 41.5138 24.0247C41.2342 23.8378 40.9053 23.738 40.5689 23.7379H40.5682C40.1173 23.7381 39.6848 23.9172 39.3659 24.2358C39.0469 24.5544 38.8676 24.9865 38.8672 25.4372ZM27.2745 44.5313C25.8925 44.4684 25.1414 44.2383 24.6422 44.044C23.9804 43.7865 23.5082 43.4798 23.0117 42.9843C22.5152 42.4888 22.2079 42.0173 21.9514 41.3559C21.7568 40.8573 21.5266 40.1063 21.4638 38.7251C21.395 37.2319 21.3813 36.7833 21.3813 33.0001C21.3813 29.2169 21.3962 28.7696 21.4638 27.2751C21.5267 25.8939 21.7586 25.1444 21.9514 24.6443C22.209 23.9829 22.5159 23.511 23.0117 23.0148C23.5075 22.5186 23.9792 22.2115 24.6422 21.9551C25.1411 21.7607 25.8925 21.5306 27.2745 21.4678C28.7687 21.3991 29.2176 21.3854 33.0013 21.3854C36.785 21.3854 37.2343 21.4003 38.7298 21.4678C40.1118 21.5307 40.8617 21.7625 41.3621 21.9551C42.0239 22.2115 42.4961 22.5193 42.9926 23.0148C43.4891 23.5103 43.7953 23.9829 44.0529 24.6443C44.2475 25.143 44.4777 25.8939 44.5405 27.2751C44.6093 28.7696 44.623 29.2169 44.623 33.0001C44.623 36.7833 44.6093 37.2306 44.5405 38.7251C44.4776 40.1063 44.2463 40.857 44.0529 41.3559C43.7953 42.0173 43.4884 42.4893 42.9926 42.9843C42.4968 43.4793 42.0239 43.7865 41.3621 44.044C40.8632 44.2384 40.1118 44.4685 38.7298 44.5313C37.2356 44.6 36.7867 44.6137 33.0013 44.6137C29.2159 44.6137 28.7683 44.6 27.2745 44.5313ZM27.1572 18.9192C25.6482 18.9878 24.617 19.227 23.7165 19.5772C22.7839 19.9388 21.9944 20.424 21.2054 21.2112C20.4165 21.9984 19.9323 22.7887 19.5704 23.7207C19.22 24.6213 18.9807 25.6513 18.912 27.1594C18.8422 28.6699 18.8262 29.1528 18.8262 33C18.8262 36.8472 18.8422 37.3301 18.912 38.8406C18.9807 40.3489 19.22 41.3787 19.5704 42.2793C19.9323 43.2107 20.4166 44.0019 21.2054 44.7888C21.9943 45.5757 22.7839 46.0602 23.7165 46.4228C24.6187 46.773 25.6482 47.0122 27.1572 47.0808C28.6694 47.1495 29.1518 47.1666 33.0013 47.1666C36.8508 47.1666 37.334 47.1507 38.8454 47.0808C40.3546 47.0122 41.385 46.773 42.2861 46.4228C43.2182 46.0602 44.0082 45.576 44.7972 44.7888C45.5861 44.0016 46.0693 43.2107 46.4322 42.2793C46.7826 41.3787 47.023 40.3487 47.0906 38.8406C47.1593 37.329 47.1753 36.8472 47.1753 33C47.1753 29.1528 47.1593 28.6699 47.0906 27.1594C47.0219 25.6511 46.7826 24.6207 46.4322 23.7207C46.0693 22.7893 45.5848 21.9997 44.7972 21.2112C44.0095 20.4228 43.2182 19.9388 42.2873 19.5772C41.385 19.227 40.3544 18.9867 38.8466 18.9192C37.3351 18.8505 36.8519 18.8334 33.0024 18.8334C29.1529 18.8334 28.6694 18.8494 27.1572 18.9192Z" fill="#CE7D63"/>
<path d="M28.277 33C28.277 30.3921 30.3918 28.2774 33.0013 28.2774C35.6108 28.2774 37.7267 30.3921 37.7267 33C37.7267 35.6079 35.6108 37.7226 33.0013 37.7226C30.3918 37.7226 28.277 35.6079 28.277 33ZM25.7225 33C25.7225 37.0177 28.9812 40.2744 33.0013 40.2744C37.0214 40.2744 40.2801 37.0177 40.2801 33C40.2801 28.9823 37.0214 25.7256 33.0013 25.7256C28.9812 25.7256 25.7225 28.9823 25.7225 33ZM38.8672 25.4372C38.8671 25.7734 38.9667 26.1021 39.1535 26.3818C39.3403 26.6614 39.6059 26.8794 39.9166 27.0082C40.2274 27.137 40.5694 27.1708 40.8994 27.1053C41.2294 27.0399 41.5325 26.8781 41.7705 26.6404C42.0085 26.4028 42.1706 26.0999 42.2364 25.7702C42.3022 25.4404 42.2686 25.0986 42.14 24.7879C42.0114 24.4772 41.7935 24.2116 41.5138 24.0247C41.2342 23.8378 40.9053 23.738 40.5689 23.7379H40.5682C40.1173 23.7381 39.6848 23.9172 39.3659 24.2358C39.0469 24.5544 38.8676 24.9865 38.8672 25.4372ZM27.2745 44.5313C25.8925 44.4684 25.1414 44.2383 24.6422 44.044C23.9804 43.7865 23.5082 43.4798 23.0117 42.9843C22.5152 42.4888 22.2079 42.0173 21.9514 41.3559C21.7568 40.8573 21.5266 40.1063 21.4638 38.7251C21.395 37.2319 21.3813 36.7833 21.3813 33.0001C21.3813 29.2169 21.3962 28.7696 21.4638 27.2751C21.5267 25.8939 21.7586 25.1444 21.9514 24.6443C22.209 23.9829 22.5159 23.511 23.0117 23.0148C23.5075 22.5186 23.9792 22.2115 24.6422 21.9551C25.1411 21.7607 25.8925 21.5306 27.2745 21.4678C28.7687 21.3991 29.2176 21.3854 33.0013 21.3854C36.785 21.3854 37.2343 21.4003 38.7298 21.4678C40.1118 21.5307 40.8617 21.7625 41.3621 21.9551C42.0239 22.2115 42.4961 22.5193 42.9926 23.0148C43.4891 23.5103 43.7953 23.9829 44.0529 24.6443C44.2475 25.143 44.4777 25.8939 44.5405 27.2751C44.6093 28.7696 44.623 29.2169 44.623 33.0001C44.623 36.7833 44.6093 37.2306 44.5405 38.7251C44.4776 40.1063 44.2463 40.857 44.0529 41.3559C43.7953 42.0173 43.4884 42.4893 42.9926 42.9843C42.4968 43.4793 42.0239 43.7865 41.3621 44.044C40.8632 44.2384 40.1118 44.4685 38.7298 44.5313C37.2356 44.6 36.7867 44.6137 33.0013 44.6137C29.2159 44.6137 28.7683 44.6 27.2745 44.5313ZM27.1572 18.9192C25.6482 18.9878 24.617 19.227 23.7165 19.5772C22.7839 19.9388 21.9944 20.424 21.2054 21.2112C20.4165 21.9984 19.9323 22.7887 19.5704 23.7207C19.22 24.6213 18.9807 25.6513 18.912 27.1594C18.8422 28.6699 18.8262 29.1528 18.8262 33C18.8262 36.8472 18.8422 37.3301 18.912 38.8406C18.9807 40.3489 19.22 41.3787 19.5704 42.2793C19.9323 43.2107 20.4166 44.0019 21.2054 44.7888C21.9943 45.5757 22.7839 46.0602 23.7165 46.4228C24.6187 46.773 25.6482 47.0122 27.1572 47.0808C28.6694 47.1495 29.1518 47.1666 33.0013 47.1666C36.8508 47.1666 37.334 47.1507 38.8454 47.0808C40.3546 47.0122 41.385 46.773 42.2861 46.4228C43.2182 46.0602 44.0082 45.576 44.7972 44.7888C45.5861 44.0016 46.0693 43.2107 46.4322 42.2793C46.7826 41.3787 47.023 40.3487 47.0906 38.8406C47.1593 37.329 47.1753 36.8472 47.1753 33C47.1753 29.1528 47.1593 28.6699 47.0906 27.1594C47.0219 25.6511 46.7826 24.6207 46.4322 23.7207C46.0693 22.7893 45.5848 21.9997 44.7972 21.2112C44.0095 20.4228 43.2182 19.9388 42.2873 19.5772C41.385 19.227 40.3544 18.9867 38.8466 18.9192C37.3351 18.8505 36.8519 18.8334 33.0024 18.8334C29.1529 18.8334 28.6694 18.8494 27.1572 18.9192Z" fill="#CE7D63"/>
</svg>
