<svg width="66" height="66" viewBox="0 0 66 66" fill="none" xmlns="http://www.w3.org/2000/svg">
<rect x="0.5" y="0.5" width="65" height="65" rx="11.5" fill="#1F1F1F"/>
<rect x="0.5" y="0.5" width="65" height="65" rx="11.5" stroke="#333333"/>
<path d="M33 47C40.732 47 47 40.732 47 33C47 25.268 40.732 19 33 19C25.268 19 19 25.268 19 33C19 40.732 25.268 47 33 47Z" fill="#CE7D63"/>
<path d="M42.3402 32.9996C42.343 33.1914 42.3192 33.3829 42.2688 33.568C42.2184 33.7532 42.1421 33.9306 42.042 34.0944C41.9422 34.2582 41.8197 34.4073 41.6783 34.5372C41.5369 34.667 41.378 34.7762 41.2062 34.8616C41.21 34.9127 41.2132 34.9642 41.2149 35.0156C41.2191 35.1183 41.2191 35.221 41.2149 35.3236C41.2132 35.3751 41.21 35.4265 41.2062 35.4776C41.2062 38.6136 37.5522 41.1616 33.0442 41.1616C28.5362 41.1616 24.8822 38.6136 24.8822 35.4776C24.8783 35.4265 24.8752 35.3751 24.8734 35.3236C24.8692 35.221 24.8692 35.1183 24.8734 35.0156C24.8752 34.9642 24.8783 34.9127 24.8822 34.8616C24.6129 34.7379 24.3738 34.5571 24.1813 34.3318C23.9888 34.1065 23.8476 33.8421 23.7674 33.5568C23.6873 33.2715 23.6703 32.9721 23.7174 32.6795C23.7646 32.3868 23.8748 32.1079 24.0404 31.8621C24.2059 31.6164 24.4229 31.4096 24.6763 31.2561C24.9297 31.1026 25.2135 31.006 25.508 30.9731C25.8025 30.9401 26.1006 30.9716 26.3818 31.0652C26.6629 31.1589 26.9203 31.3126 27.1362 31.5156C27.5369 31.2441 27.9567 31.0018 28.3923 30.7908C28.8281 30.5801 29.2785 30.4009 29.7402 30.2553C30.2018 30.1097 30.6736 29.998 31.1514 29.9207C31.6291 29.8433 32.1121 29.801 32.5962 29.7936L33.6322 24.9356C33.6437 24.8793 33.6665 24.8261 33.699 24.7785C33.7312 24.7312 33.7729 24.6906 33.8208 24.6595C33.8691 24.6283 33.923 24.607 33.9797 24.5965C34.0361 24.5863 34.0942 24.5874 34.1502 24.5996L37.5802 25.2856C37.9263 24.691 38.6529 24.4362 39.2945 24.684C39.936 24.9318 40.3028 25.609 40.1593 26.2817C40.0162 26.9544 39.4051 27.4234 38.7184 27.3881C38.0313 27.3527 37.4717 26.8235 37.3982 26.1396L34.4022 25.5096L33.4922 29.8776C33.9703 29.8878 34.4473 29.9326 34.9191 30.0113C35.8639 30.1688 36.781 30.4619 37.6421 30.8814C38.0722 31.0907 38.4866 31.3308 38.8822 31.5996C39.1666 31.3266 39.524 31.1417 39.9112 31.0673C40.2984 30.9926 40.6989 31.0317 41.0644 31.1796C41.43 31.3276 41.7449 31.5781 41.9713 31.901C42.1977 32.2239 42.3258 32.6055 42.3402 32.9996ZM28.4466 34.9355C28.5173 35.1052 28.6202 35.2596 28.7504 35.3894C28.8802 35.5196 29.0346 35.6225 29.2043 35.6932C29.3742 35.7635 29.5563 35.7997 29.7402 35.7996C30.3065 35.7996 30.8168 35.4584 31.0338 34.9355C31.2504 34.4122 31.1304 33.8102 30.73 33.4098C30.3296 33.0094 29.7276 32.8894 29.2043 33.106C28.6814 33.323 28.3402 33.8333 28.3402 34.3996C28.3402 34.5834 28.3762 34.7654 28.4466 34.9355ZM36.4651 38.2962C36.5368 38.2262 36.5778 38.1306 36.5792 38.0305C36.5806 37.9301 36.5417 37.8335 36.4717 37.7617C36.4017 37.69 36.3062 37.649 36.2061 37.6476C36.1056 37.6462 36.009 37.6851 35.9282 37.7456C35.7176 37.8966 35.4947 38.0295 35.2618 38.1429C35.0288 38.2563 34.7867 38.3499 34.538 38.4225C34.2895 38.495 34.035 38.5464 33.7778 38.5762C33.5202 38.6059 33.2608 38.6136 33.0022 38.5996C32.7439 38.6112 32.4849 38.6007 32.2283 38.5685C31.9717 38.5366 31.7183 38.4828 31.4709 38.4075C31.2231 38.3326 30.9827 38.2367 30.7513 38.1212C30.52 38.0057 30.2988 37.8706 30.0902 37.7176C30.0177 37.6581 29.9257 37.6277 29.8319 37.6322C29.7381 37.6368 29.6495 37.6763 29.583 37.7425C29.5169 37.809 29.4773 37.8975 29.4728 37.9913C29.4682 38.0851 29.4987 38.1772 29.5582 38.2496C29.8042 38.4351 30.0657 38.5989 30.3397 38.7396C30.6138 38.8803 30.8997 38.9969 31.1937 39.0886C31.4877 39.1803 31.7891 39.2464 32.0946 39.2867C32.4002 39.3266 32.7085 39.3402 33.0162 39.3276C33.3238 39.3402 33.6322 39.3266 33.9377 39.2867C34.5497 39.2062 35.1433 39.0212 35.6926 38.7396C35.9667 38.5989 36.2281 38.4351 36.4742 38.2496L36.4651 38.2962ZM36.2082 35.9116C36.3979 35.9137 36.5862 35.877 36.7615 35.8042C36.9369 35.731 37.0954 35.6232 37.2277 35.4871C37.36 35.3509 37.4629 35.1892 37.5308 35.0118C37.5988 34.8346 37.6298 34.6453 37.6222 34.4556C37.6222 33.8893 37.2809 33.379 36.758 33.162C36.2348 32.9454 35.6328 33.0654 35.2324 33.4658C34.832 33.8662 34.7119 34.4682 34.9286 34.9915C35.1456 35.5144 35.6559 35.8556 36.2222 35.8556L36.2082 35.9116Z" fill="#1F1F1F"/>
</svg>
