<svg width="56" height="56" viewBox="0 0 56 56" fill="none" xmlns="http://www.w3.org/2000/svg">
<rect x="0.5" y="0.5" width="55" height="55" rx="7.5" fill="#1F1F1F"/>
<rect x="0.5" y="0.5" width="55" height="55" rx="7.5" stroke="#333333"/>
<path fill-rule="evenodd" clip-rule="evenodd" d="M17.5 26.1527C17.5 22.4222 17.5 20.5569 17.9404 19.9294C18.3809 19.3019 20.1347 18.7015 23.6424 17.5008L24.3107 17.2721C26.1391 16.6462 27.0534 16.3333 28 16.3333C28.9466 16.3333 29.8609 16.6462 31.6893 17.2721L32.3576 17.5008C35.8653 18.7015 37.6191 19.3019 38.0596 19.9294C38.5 20.5569 38.5 22.4222 38.5 26.1527V27.9898C38.5 34.5676 33.5545 37.7597 30.4517 39.1151C29.61 39.4827 29.1891 39.6666 28 39.6666C26.8109 39.6666 26.39 39.4827 25.5483 39.1151C22.4455 37.7597 17.5 34.5676 17.5 27.9898V26.1527ZM30.3333 24.4999C30.3333 25.7886 29.2887 26.8333 28 26.8333C26.7113 26.8333 25.6667 25.7886 25.6667 24.4999C25.6667 23.2113 26.7113 22.1666 28 22.1666C29.2887 22.1666 30.3333 23.2113 30.3333 24.4999ZM28 33.8333C32.6667 33.8333 32.6667 32.7886 32.6667 31.4999C32.6667 30.2113 30.5773 29.1666 28 29.1666C25.4227 29.1666 23.3333 30.2113 23.3333 31.4999C23.3333 32.7886 23.3333 33.8333 28 33.8333Z" fill="#CE7D63"/>
</svg>
