<svg width="66" height="66" viewBox="0 0 66 66" fill="none" xmlns="http://www.w3.org/2000/svg">
<rect x="0.5" y="0.5" width="65" height="65" rx="11.5" fill="#1F1F1F"/>
<rect x="0.5" y="0.5" width="65" height="65" rx="11.5" stroke="#333333"/>
<path fill-rule="evenodd" clip-rule="evenodd" d="M35.553 23.5556C35.553 20.9476 37.6768 18.8334 40.2967 18.8334C42.9165 18.8334 45.0404 20.9476 45.0404 23.5556C45.0404 26.1636 42.9165 28.2778 40.2967 28.2778C38.9738 28.2778 37.7782 27.7385 36.9187 26.8708L30.3519 31.3419C30.4126 31.6436 30.4444 31.9552 30.4444 32.2735C30.4444 32.904 30.3198 33.5066 30.094 34.0574L37.2945 38.7883C38.1117 38.1228 39.1574 37.7223 40.2967 37.7223C42.9165 37.7223 45.0404 39.8365 45.0404 42.4445C45.0404 45.0525 42.9165 47.1667 40.2967 47.1667C37.6768 47.1667 35.553 45.0525 35.553 42.4445C35.553 41.7614 35.6992 41.1112 35.962 40.5241L28.8196 35.8315C27.9865 36.5556 26.8951 36.9958 25.7007 36.9958C23.0809 36.9958 20.957 34.8816 20.957 32.2735C20.957 29.6655 23.0809 27.5513 25.7007 27.5513C27.2072 27.5513 28.5483 28.2503 29.4166 29.3382L35.7809 25.005C35.6329 24.5476 35.553 24.0603 35.553 23.5556Z" fill="#DA9E8B"/>
</svg>
