<svg width="56" height="56" viewBox="0 0 56 56" fill="none" xmlns="http://www.w3.org/2000/svg">
<rect x="0.5" y="0.5" width="55" height="55" rx="7.5" fill="#1F1F1F"/>
<rect x="0.5" y="0.5" width="55" height="55" rx="7.5" stroke="#333333"/>
<path d="M24.6793 20.3097C26.1571 17.6587 26.896 16.3333 28.0007 16.3333C29.1053 16.3333 29.8442 17.6587 31.322 20.3097L31.7043 20.9955C32.1242 21.7488 32.3342 22.1255 32.6616 22.374C32.9889 22.6226 33.3967 22.7148 34.2121 22.8993L34.9545 23.0673C37.8242 23.7166 39.259 24.0412 39.6003 25.1389C39.9417 26.2367 38.9635 27.3805 37.0072 29.6682L36.5011 30.26C35.9452 30.9101 35.6672 31.2351 35.5421 31.6373C35.4171 32.0394 35.4591 32.4731 35.5432 33.3404L35.6197 34.13C35.9155 37.1823 36.0633 38.7084 35.1696 39.3868C34.2759 40.0653 32.9325 39.4467 30.2457 38.2096L29.5506 37.8896C28.7871 37.538 28.4053 37.3622 28.0007 37.3622C27.596 37.3622 27.2142 37.538 26.4507 37.8896L25.7556 38.2096C23.0688 39.4467 21.7254 40.0653 20.8317 39.3868C19.938 38.7084 20.0858 37.1823 20.3816 34.1301L20.4581 33.3404C20.5422 32.473 20.5842 32.0394 20.4592 31.6373C20.3341 31.2351 20.0561 30.9101 19.5002 30.26L18.9941 29.6682C17.0378 27.3805 16.0596 26.2367 16.401 25.1389C16.7423 24.0412 18.1772 23.7166 21.0468 23.0673L21.7892 22.8993C22.6046 22.7148 23.0124 22.6226 23.3398 22.374C23.6671 22.1255 23.8771 21.7488 24.297 20.9955L24.6793 20.3097Z" fill="#CE7D63"/>
</svg>
