<svg width="56" height="56" viewBox="0 0 56 56" fill="none" xmlns="http://www.w3.org/2000/svg">
<rect x="0.5" y="0.5" width="55" height="55" rx="7.5" fill="#1F1F1F"/>
<rect x="0.5" y="0.5" width="55" height="55" rx="7.5" stroke="#333333"/>
<path fill-rule="evenodd" clip-rule="evenodd" d="M28 39.6666C33.799 39.6666 38.5 34.9656 38.5 29.1666C38.5 23.3676 33.799 18.6666 28 18.6666C22.201 18.6666 17.5 23.3676 17.5 29.1666C17.5 34.9656 22.201 39.6666 28 39.6666ZM28 23.6249C28.4832 23.6249 28.875 24.0167 28.875 24.4999V29.1666C28.875 29.6498 28.4832 30.0416 28 30.0416C27.5168 30.0416 27.125 29.6498 27.125 29.1666V24.4999C27.125 24.0167 27.5168 23.6249 28 23.6249Z" fill="#CE7D63"/>
<path fill-rule="evenodd" clip-rule="evenodd" d="M24.7917 16.3333C24.7917 15.85 25.1834 15.4583 25.6667 15.4583H30.3333C30.8166 15.4583 31.2083 15.85 31.2083 16.3333C31.2083 16.8165 30.8166 17.2083 30.3333 17.2083H25.6667C25.1834 17.2083 24.7917 16.8165 24.7917 16.3333Z" fill="#CE7D63"/>
</svg>
