<svg width="66" height="66" viewBox="0 0 66 66" fill="none" xmlns="http://www.w3.org/2000/svg">
<rect x="0.5" y="0.5" width="65" height="65" rx="11.5" fill="#1F1F1F"/>
<rect x="0.5" y="0.5" width="65" height="65" rx="11.5" stroke="#333333"/>
<path d="M48.3296 23.3132C47.329 23.7439 46.277 24.0437 45.1997 24.2054C45.7034 24.1191 46.4445 23.2125 46.7395 22.8455C47.1877 22.292 47.5292 21.6601 47.7468 20.982C47.7468 20.9316 47.7972 20.8597 47.7468 20.8237C47.7214 20.8098 47.693 20.8026 47.6641 20.8026C47.6352 20.8026 47.6067 20.8098 47.5813 20.8237C46.4115 21.4572 45.1665 21.9407 43.8758 22.2627C43.8308 22.2765 43.7829 22.2777 43.7373 22.2663C43.6917 22.2549 43.65 22.2313 43.6168 22.198C43.5163 22.0783 43.4081 21.9654 43.293 21.8598C42.7665 21.3881 42.1692 21.0021 41.5229 20.7157C40.6506 20.3578 39.7082 20.2028 38.7672 20.2624C37.854 20.3201 36.9625 20.565 36.1481 20.982C35.3461 21.4215 34.6412 22.0187 34.0759 22.7376C33.4812 23.4775 33.0518 24.3362 32.8167 25.2559C32.6228 26.1308 32.6008 27.035 32.752 27.9182C32.752 28.0693 32.752 28.0909 32.6224 28.0693C27.4922 27.3138 23.283 25.4934 19.8437 21.5864C19.6926 21.4137 19.6135 21.4137 19.4912 21.5864C17.9945 23.8601 18.7213 27.4577 20.592 29.2349C20.8439 29.4723 21.1029 29.7026 21.3763 29.9184C20.5186 29.8576 19.6818 29.6251 18.9155 29.2349C18.7716 29.1414 18.6925 29.1917 18.6853 29.3644C18.6649 29.6038 18.6649 29.8445 18.6853 30.0839C18.8354 31.2313 19.2876 32.3182 19.9955 33.2335C20.7035 34.1487 21.6418 34.8596 22.7146 35.2933C22.9761 35.4053 23.2486 35.4897 23.5277 35.5451C22.7336 35.7014 21.9192 35.7258 21.1173 35.6171C20.9446 35.5811 20.8798 35.6746 20.9446 35.8401C22.0023 38.7182 24.2976 39.596 25.9812 40.0853C26.2115 40.1213 26.4417 40.1213 26.7008 40.1789C26.7008 40.1789 26.7008 40.1788 26.6576 40.222C26.1611 41.1286 24.1537 41.7402 23.2327 42.0568C21.5516 42.6606 19.7593 42.8914 17.9802 42.7332C17.6995 42.69 17.6348 42.6972 17.5628 42.7332C17.4909 42.7691 17.5628 42.8483 17.642 42.9202C18.0017 43.1577 18.3615 43.3663 18.7357 43.5678C19.8495 44.1753 21.0271 44.6579 22.2469 45.0069C28.5643 46.7481 35.6732 45.4673 40.4149 40.7545C44.142 37.0561 45.4515 31.9547 45.4515 26.8461C45.4515 26.6518 45.689 26.5367 45.8257 26.436C46.7686 25.7012 47.6 24.8336 48.2937 23.8601C48.4138 23.715 48.4754 23.5302 48.4663 23.342C48.4663 23.2341 48.4663 23.2557 48.3296 23.3132Z" fill="#CE7D63"/>
</svg>
